<svg width="405" height="163" viewBox="0 0 405 163" fill="none" xmlns="http://www.w3.org/2000/svg">
<path d="M0.145386 148.174L7.61898 134.682L12.7696 137.535C9.64488 134.194 9.24018 130.434 11.5557 126.254C13.8918 122.036 17.3234 120.596 21.8505 121.933C18.5432 118.394 18.0472 114.534 20.3627 110.354C23.4017 104.867 28.0378 103.85 34.2708 107.303L51.1223 116.637L52.8589 113.502L53.8667 114.06L45.2767 129.568L44.269 129.01L45.3543 127.05L27.1592 116.972C24.3226 115.401 22.5273 114.723 21.7733 114.94C21.4254 115.04 21.148 115.276 20.9413 115.649C20.3417 116.732 20.5423 118.087 21.5431 119.714C22.5439 121.342 24.164 122.775 26.4034 124.016L42.1913 132.761L43.3076 130.745L44.3154 131.304L36.3456 145.692L35.3379 145.134L36.4233 143.174L18.2281 133.096C15.3915 131.524 13.5962 130.847 12.8423 131.063C12.4943 131.163 12.2169 131.4 12.0102 131.773C11.4313 132.818 11.7066 134.214 12.836 135.962C13.9488 137.651 15.6062 139.106 17.8083 140.326L33.2602 148.885L34.3766 146.869L35.3843 147.427L26.7943 162.935L25.7866 162.377L27.4922 159.298L2.85868 145.653L1.15308 148.732L0.145386 148.174Z" fill="#838B60"/>
<path d="M57.4949 89.943L58.7889 88.612L55.2559 85.176C52.35 82.351 50.2441 80.63 48.9381 80.015C47.6312 79.339 46.5316 79.46 45.6392 80.377C45.1038 80.928 44.7659 81.582 44.6256 82.338C44.4845 83.034 44.6739 83.635 45.1939 84.14C45.6833 84.616 46.2773 85.015 46.9757 85.337L48.0912 84.19C48.9715 84.57 49.8705 85.206 50.7881 86.099C51.6752 86.961 52.0834 88.102 52.0127 89.521C51.9114 90.911 51.2956 92.187 50.1652 93.349C47.6071 95.98 45.0586 96.06 42.5198 93.591C38.7575 89.933 39.9847 84.907 46.2016 78.514C49.7413 74.874 52.8075 72.9756 55.4002 72.8187C57.992 72.6014 60.9397 74.099 64.2432 77.312L73.5571 86.369C75.1481 87.916 76.3741 88.246 77.2371 87.359C78.2481 86.319 77.2681 84.175 74.2961 80.928L75.0111 80.284C77.5841 83.024 78.9441 85.328 79.0901 87.197C79.2371 89.066 78.3291 91.009 76.3661 93.028C72.7961 96.699 69.6121 97.709 66.8132 96.058C67.5891 97.586 67.8651 99.016 67.6421 100.346C67.4201 101.677 66.5647 103.107 65.0774 104.637C60.675 109.164 56.6233 109.628 52.9221 106.028C50.7503 103.916 50.0997 101.617 50.9701 99.131C51.8398 96.584 54.0147 93.521 57.4949 89.943ZM61.3537 97.266C62.9443 98.813 64.0434 99.733 64.6509 100.026C65.2882 100.289 65.83 100.191 66.2762 99.732C66.7521 99.242 66.801 98.427 66.423 97.286C66.0442 96.084 65.1665 94.814 63.79 93.475L59.523 89.326L59.2107 89.647C57.3664 91.544 57.8361 93.845 60.6196 96.552L61.3537 97.266Z" fill="#838B60"/>
<path d="M87.105 47.8747C85.8 48.7637 85.231 50.3908 85.397 52.756C85.564 55.1211 86.44 57.4672 88.026 59.7941L97.685 73.9674L101.44 71.4083L102.089 72.3602L85.589 83.606L84.94 82.654L87.849 80.672L71.989 57.402L69.081 59.3844L68.432 58.4325L81.177 49.7459L84.637 54.8229C83.87 52.7124 83.815 50.7367 84.47 48.8957C85.102 47.0194 86.246 45.5166 87.903 44.3872C89.561 43.2579 91.225 42.8207 92.896 43.0758C94.578 43.2716 96.008 44.2333 97.186 45.9609C98.339 47.6532 98.84 49.222 98.69 50.6674C98.539 52.1127 97.652 53.388 96.03 54.4933C94.444 55.5747 92.902 55.8508 91.406 55.3217C89.945 54.7686 88.859 53.3655 88.15 51.1125L90.054 49.8149C89.71 47.4161 88.727 46.7693 87.105 47.8747Z" fill="#838B60"/>
<path d="M130.936 57.884C125.877 60.0518 121.519 60.3878 117.86 58.8917C114.225 57.3397 111.415 54.2498 109.432 49.6221C107.432 44.9552 107.315 40.7814 109.08 37.1007C110.884 33.4032 113.982 30.6134 118.375 28.7312C127.277 24.9164 133.468 27.5555 136.946 36.6484L120.357 43.757L121.34 46.0512C122.987 49.8945 124.721 52.5866 126.542 54.1273C128.362 55.6681 130.488 55.9175 132.92 54.8756C137.469 52.9262 139.408 49.2175 138.736 43.7495L139.87 43.4723C140.335 46.6152 139.923 49.3912 138.635 51.8002C137.385 54.1923 134.819 56.2203 130.936 57.884ZM119.912 42.5552L125.971 39.9588L124.736 37.0763C123.375 33.8997 122.254 31.8267 121.375 30.8575C120.517 29.8322 119.52 29.5632 118.383 30.0506C117.285 30.5211 116.73 31.5015 116.719 32.9917C116.73 34.4259 117.383 36.6529 118.677 39.6727L119.912 42.5552Z" fill="#838B60"/>
<path d="M137.662 3.737L152.893 0.0126953L164.02 45.5201L167.502 44.6688L167.775 45.7879L149.311 50.3026L149.038 49.1836L152.457 48.3475L141.603 3.9592L137.935 4.856L137.662 3.737Z" fill="#838B60"/>
<path d="M187.621 28.1809L189.473 28.0565L189.143 23.1396C188.871 19.0954 188.456 16.4079 187.896 15.077C187.376 13.7008 186.477 13.0555 185.2 13.1413C184.434 13.1927 183.746 13.4527 183.136 13.9213C182.566 14.3445 182.305 14.9179 182.353 15.6416C182.399 16.3227 182.574 17.0166 182.878 17.7231L184.474 17.616C184.875 18.4871 185.118 19.5612 185.204 20.8383C185.287 22.0729 184.828 23.1942 183.826 24.2022C182.822 25.1676 181.511 25.7047 179.893 25.8133C176.232 26.0591 174.283 24.4153 174.046 20.8819C173.694 15.6457 177.967 12.7289 186.864 12.1315C191.93 11.7914 195.48 12.4297 197.513 14.0465C199.585 15.6178 200.776 18.7023 201.085 23.3L201.955 36.2628C202.104 38.4765 202.795 39.5419 204.03 39.459C205.477 39.3618 206.181 37.1122 206.142 32.7103L207.104 32.7098C207.186 36.4675 206.656 39.0902 205.516 40.5779C204.376 42.0656 202.401 42.9038 199.591 43.0925C194.483 43.4355 191.439 42.0576 190.462 38.9588C190.017 40.6136 189.267 41.8614 188.211 42.702C187.156 43.5426 185.564 44.0343 183.436 44.1772C177.135 44.6003 173.812 42.2363 173.466 37.0852C173.263 34.0627 174.316 31.9179 176.626 30.651C178.975 29.3387 182.64 28.5153 187.621 28.1809ZM185.594 36.2067C185.743 38.4204 185.945 39.8394 186.201 40.4636C186.499 41.085 186.968 41.3743 187.606 41.3314C188.287 41.2857 188.869 40.7121 189.351 39.6107C189.873 38.4638 190.069 36.9326 189.94 35.0169L189.542 29.0782L189.095 29.1082C186.455 29.2855 185.266 31.311 185.526 35.185L185.594 36.2067Z" fill="#838B60"/>
<path d="M253.056 18.5173C251.223 18.1091 249.689 18.8164 248.452 20.6391C247.216 22.4619 246.083 25.6846 245.053 30.3073L244.329 33.5557C243.411 37.6786 243.21 40.7375 243.728 42.7324C244.245 44.7272 245.732 45.9983 248.189 46.5457C250.646 47.093 252.789 46.6961 254.618 45.355C256.447 44.0138 257.806 42.3277 258.695 40.2965L259.792 40.6719C258.203 44.0772 256.17 46.3346 253.694 47.444C251.166 48.5858 248.008 48.7346 244.218 47.8904C239.387 46.8142 235.968 44.6976 233.961 41.5403C231.964 38.3415 231.521 34.2433 232.635 29.2458C233.757 24.2066 236.078 20.6582 239.596 18.6006C243.156 16.5523 247.559 16.1126 252.807 17.2815C256.513 18.1072 259.183 19.4668 260.815 21.3604C262.457 23.2124 263.037 25.2212 262.555 27.3868C262.072 29.5524 261.241 31.0282 260.06 31.8144C258.921 32.6098 257.519 32.8219 255.853 32.4509C254.229 32.0891 253.015 31.3595 252.21 30.2623C251.405 29.1651 251.193 27.7628 251.573 26.0553C251.74 25.3057 252.012 24.5792 252.387 23.876L254.448 24.3352C254.925 23.5672 255.238 22.8501 255.386 22.1837C255.832 20.1847 255.055 18.9626 253.056 18.5173Z" fill="#838B60"/>
<path d="M282.866 44.0797L284.562 44.8327L286.562 40.3284C288.206 36.6237 289.091 34.0521 289.215 32.6138C289.397 31.1537 288.902 30.1641 287.732 29.6448C287.03 29.3332 286.3 29.2426 285.542 29.373C284.841 29.4816 284.343 29.8674 284.048 30.5304C283.771 31.1543 283.603 31.8497 283.543 32.6166L285.005 33.2657C284.953 34.2231 284.668 35.2868 284.149 36.4567C283.647 37.5876 282.718 38.3657 281.362 38.7909C280.024 39.1772 278.614 39.0414 277.132 38.3836C273.778 36.895 272.819 34.5323 274.256 31.2955C276.385 26.4988 281.525 25.9092 289.675 29.5269C294.316 31.5867 297.159 33.8055 298.204 36.1833C299.306 38.5395 298.922 41.8234 297.052 46.0352L291.782 57.91C290.882 59.9379 290.997 61.2029 292.128 61.7048C293.454 62.2934 295.125 60.6312 297.142 56.7182L297.994 57.1662C296.314 60.5288 294.624 62.6025 292.922 63.3875C291.219 64.1724 289.081 63.9937 286.508 62.8513C281.828 60.7742 279.777 58.1369 280.356 54.9395C279.192 56.1964 277.947 56.9508 276.621 57.2027C275.296 57.4546 273.658 57.1479 271.708 56.2824C265.936 53.7206 264.098 50.0803 266.192 45.3616C267.421 42.5928 269.352 41.186 271.986 41.1414C274.677 41.0751 278.303 42.0545 282.866 44.0797ZM277.332 50.2363C276.432 52.2642 275.95 53.6139 275.885 54.2854C275.86 54.9742 276.139 55.4484 276.724 55.7081C277.348 55.985 278.13 55.7485 279.07 54.9986C280.066 54.227 280.953 52.9637 281.732 51.2088L284.147 45.7686L283.737 45.5869C281.32 44.5137 279.323 45.7515 277.748 49.3003L277.332 50.2363Z" fill="#838B60"/>
<path d="M332.586 57.2855C331.3 56.3697 329.577 56.3994 327.415 57.3745C325.254 58.3496 323.357 59.9841 321.723 62.2778L311.773 76.249L315.474 78.885L314.806 79.823L298.541 68.2396L299.21 67.3012L302.077 69.3432L318.413 46.4058L315.546 44.3638L316.214 43.4254L328.777 52.373L325.213 57.3776C326.927 55.9269 328.761 55.1903 330.716 55.1677C332.695 55.1104 334.501 55.6634 336.134 56.8267C337.768 57.99 338.754 59.3998 339.094 61.0559C339.493 62.702 339.086 64.3766 337.873 66.0795C336.685 67.7477 335.387 68.7613 333.979 69.1204C332.571 69.4794 331.067 69.0897 329.469 67.9511C327.905 66.8373 327.112 65.4868 327.09 63.8997C327.102 62.3373 328.043 60.8332 329.911 59.3872L331.787 60.7238C333.918 59.5701 334.185 58.424 332.586 57.2855Z" fill="#838B60"/>
<path d="M360.769 55.4039L371.902 66.4459L338.911 99.708L341.455 102.231L340.644 103.049L327.149 89.664L327.96 88.846L330.459 91.325L362.639 58.8809L359.958 56.2218L360.769 55.4039Z" fill="#838B60"/>
<path d="M367.114 116.498L371.543 113.341C374.914 110.938 377.227 109.001 378.483 107.529C379.799 106.067 379.986 104.676 379.045 103.356C378.5 102.592 377.828 102.127 377.03 101.963C376.291 101.808 375.344 101.986 374.188 102.496C372.401 103.298 369.91 104.838 366.713 107.116L362.649 110.014C358.862 112.714 356.66 114.44 356.044 115.193C355.454 115.981 355.002 116.67 354.688 117.26C354.127 118.237 354.243 119.281 355.035 120.393C356.001 121.748 357.414 122.076 359.275 121.379C360.61 120.899 363.223 119.272 367.114 116.498ZM354.023 120.957C350.927 116.614 349.698 112.539 350.337 108.73C350.975 104.921 353.362 101.544 357.496 98.596C361.665 95.624 365.704 94.527 369.611 95.305C373.579 96.092 377.098 98.64 380.169 102.948C383.24 107.256 384.488 111.213 383.915 114.818C383.375 118.399 380.987 121.7 376.748 124.721C367.889 131.037 360.313 129.782 354.023 120.957Z" fill="#838B60"/>
<path d="M366.624 140.446L377.032 135.659L377.353 136.357C374.444 138.916 372.703 141.36 372.131 143.689C371.558 146.019 371.861 148.463 373.037 151.021C374.856 154.975 377.025 156.373 379.544 155.214C380.63 154.715 381.221 153.856 381.318 152.637C381.475 150.733 381.243 148.492 380.621 145.913C380.106 142.957 380.02 140.319 380.363 138.001C380.778 135.227 382.497 133.145 385.521 131.755C388.545 130.364 391.376 130.189 394.015 131.23C396.692 132.252 398.744 134.314 400.17 137.416C401.044 139.315 401.498 141.478 401.534 143.903C401.563 144.782 401.666 145.416 401.844 145.803C402.023 146.191 402.31 146.458 402.706 146.605C403.102 146.751 403.757 146.849 404.672 146.898L404.966 147.537L396.07 151.629L395.749 150.931C399.879 146.637 400.991 142.416 399.083 138.268C398.245 136.446 397.292 135.241 396.223 134.652C395.192 134.046 394.193 133.966 393.224 134.411C392.642 134.679 392.239 135.028 392.015 135.46C391.83 135.874 391.695 136.194 391.612 136.421C391.528 136.647 391.469 136.979 391.436 137.417C391.441 137.837 391.439 138.19 391.43 138.477C391.46 138.745 391.504 139.147 391.563 139.684C391.639 140.259 391.712 140.672 391.78 140.922C392.333 143.861 392.625 146.028 392.656 147.423C392.726 148.799 392.653 150.172 392.436 151.539C391.944 154.349 390.05 156.511 386.755 158.026C383.499 159.524 380.572 159.696 377.975 158.542C375.417 157.37 373.363 155.098 371.812 151.726C370.706 149.323 370.199 146.738 370.289 143.973C370.385 143.365 370.371 142.926 370.246 142.654C369.854 141.801 368.753 141.298 366.945 141.143L366.624 140.446Z" fill="#838B60"/>
</svg>
